<?xml version="1.0" encoding="UTF-8"?> <svg xmlns="http://www.w3.org/2000/svg" width="118.019" height="96" viewBox="0 0 118.019 96"><g id="INC_5000" data-name="INC 5000" transform="translate(-3187.338 783.912)"><g id="Group_1478" data-name="Group 1478" transform="translate(3187.338 -783.912)"><g id="Group_1475" data-name="Group 1475" transform="translate(12.061)"><path id="Path_3205" data-name="Path 3205" d="M3217.889-737.106a46.856,46.856,0,0,1,46.989-46.806,46.859,46.859,0,0,1,46.746,46.812,46.853,46.853,0,0,1-46.87,46.806A46.857,46.857,0,0,1,3217.889-737.106Zm46.875-44.579a44.643,44.643,0,0,0-44.645,44.385,44.648,44.648,0,0,0,44.6,44.788,44.668,44.668,0,0,0,44.682-44.6A44.651,44.651,0,0,0,3264.763-781.685Z" transform="translate(-3217.889 783.912)"></path><path id="Path_3206" data-name="Path 3206" d="M3268.181-778.27A44.651,44.651,0,0,1,3312.82-733.7a44.668,44.668,0,0,1-44.681,44.6,44.649,44.649,0,0,1-44.6-44.788A44.644,44.644,0,0,1,3268.181-778.27Zm-37.213,49.1a17.279,17.279,0,0,1,2.213-1.376,12.289,12.289,0,0,1,10.8.257,7.41,7.41,0,0,1,3.087,2.962,9.043,9.043,0,0,1-3.1,11.53,13.9,13.9,0,0,1-8.542,1.915c-1.214-.076-2.417-.327-3.584-.491,8.6,16.765,30.13,26.753,50.89,18.67a40.782,40.782,0,0,0,22.559-54.218,40.856,40.856,0,0,0-54.9-20.68c-20.853,9.914-26.856,32.375-21.8,48.224a2.148,2.148,0,0,0,.151-.176,3.178,3.178,0,0,1,3.956-1.385,2.907,2.907,0,0,1,1.751,3.556,24.834,24.834,0,0,1-1.065,3.572,1.453,1.453,0,0,0,.544,1.922,2.966,2.966,0,0,0,4.065-.492,8.3,8.3,0,0,0,1.33-2.444,17.182,17.182,0,0,0,.746-7.175,12.663,12.663,0,0,0-.773-3.46,3.444,3.444,0,0,0-4.3-2.119,6.594,6.594,0,0,0-4.214,3.383c-.1.178-.2.362-.312.567l-.564-.245a1.368,1.368,0,0,1,0-.217q1.368-7.251,2.74-14.5c.1-.506.259-.559.709-.332a10.688,10.688,0,0,0,1.6.7,19.4,19.4,0,0,0,8.1.788,12.468,12.468,0,0,0,4.66-1.268.926.926,0,0,0,.571-.966c-.048-.811-.013-1.627-.013-2.531h2.76v-7.908h-1.778v-3.366h10.047v3.423h-1.819v7.88h1.806v3.2h-.7c-2.97,0-5.941.019-8.91-.015a1.274,1.274,0,0,0-1.319.745,13.824,13.824,0,0,1-6.586,6.181,15.213,15.213,0,0,1-6.9.96c-.969-.044-1.942-.007-2.975-.007Z" transform="translate(-3221.306 780.497)" fill="#fff"></path><path id="Path_3207" data-name="Path 3207" d="M3236.136-723.44l.94-4.93c1.033,0,2.006-.037,2.975.007a15.209,15.209,0,0,0,6.9-.96,13.825,13.825,0,0,0,6.586-6.181,1.274,1.274,0,0,1,1.319-.745c2.97.033,5.94.015,8.91.015h.7v-3.2h-1.806v-7.88h1.819v-3.423h-10.047v3.366h1.778v7.908h-2.759c0,.9-.036,1.72.013,2.531a.925.925,0,0,1-.57.966,12.47,12.47,0,0,1-4.661,1.268,19.4,19.4,0,0,1-8.1-.788,10.7,10.7,0,0,1-1.6-.7c-.45-.227-.613-.174-.708.332q-1.373,7.25-2.74,14.5a1.393,1.393,0,0,0,0,.218l.565.245c.113-.205.208-.388.312-.567a6.594,6.594,0,0,1,4.214-3.383,3.444,3.444,0,0,1,4.3,2.119,12.674,12.674,0,0,1,.773,3.46,17.178,17.178,0,0,1-.746,7.175,8.3,8.3,0,0,1-1.33,2.444,2.965,2.965,0,0,1-4.064.492,1.452,1.452,0,0,1-.544-1.922,24.857,24.857,0,0,0,1.065-3.572,2.908,2.908,0,0,0-1.751-3.556,3.179,3.179,0,0,0-3.957,1.385,2.142,2.142,0,0,1-.151.176c-5.057-15.849.947-38.31,21.8-48.224a40.856,40.856,0,0,1,54.9,20.68,40.781,40.781,0,0,1-22.559,54.218c-20.759,8.083-42.292-1.9-50.89-18.67,1.167.165,2.37.415,3.584.491a13.9,13.9,0,0,0,8.542-1.915,9.043,9.043,0,0,0,3.1-11.53,7.411,7.411,0,0,0-3.087-2.962,12.29,12.29,0,0,0-10.805-.257A17.292,17.292,0,0,0,3236.136-723.44Zm30.286-16h-1.349v3.2c2.556,0,5.072,0,7.588-.016.105,0,.295-.234.3-.364.028-.8,0-1.6.02-2.4.007-.338-.126-.451-.449-.433-.341.019-.684,0-1.059,0,0-.973-.013-1.85,0-2.726a1.994,1.994,0,0,1,2.646-1.9,1.173,1.173,0,0,1,.946,1.069c.046,1.164.014,2.331.014,3.554-.347,0-.657.021-.964-.005-.39-.033-.51.124-.5.5.025.722.033,1.447,0,2.168-.022.45.141.56.57.556,2.208-.019,4.416-.008,6.624-.011.171,0,.342-.02.6-.037v-2.8a17.074,17.074,0,0,0,1.223,1.368c2.169,1.959,6.86,2.35,9.336.8a4.422,4.422,0,0,0,2.072-3.4h-4.232c-.029.122-.053.233-.083.343a1.628,1.628,0,0,1-1.706,1.309,1.618,1.618,0,0,1-1.823-1.232,6.8,6.8,0,0,1,.013-3.534,1.628,1.628,0,0,1,1.788-1.208,1.507,1.507,0,0,1,1.532,1.274c.094.371.136.754.208,1.16l4.245-.475a4.544,4.544,0,0,0-2.96-4.072,8.659,8.659,0,0,0-7.469.516,4.637,4.637,0,0,0-2.584,4.06,24.031,24.031,0,0,0,.175,2.668H3280.1v-.688c0-1.192.015-2.384,0-3.576a3.032,3.032,0,0,0-2.225-3.158c-2.328-.675-4.533-.542-6.3,1.411a3.155,3.155,0,0,1-.278.222v-2.042h-6.208v3.162h1.34Zm25.339,17.535c-.119-1.006-.168-2.026-.37-3.015a9.036,9.036,0,0,0-4.529-6.573,8.559,8.559,0,0,0-11.73,3.971,14.1,14.1,0,0,0-.663,11.206,8.393,8.393,0,0,0,3.774,4.693,8.547,8.547,0,0,0,11.651-3.215A14.065,14.065,0,0,0,3291.761-721.9Zm-37.252,1.05c.025.367.039.955.109,1.535a10.277,10.277,0,0,0,3.173,6.732,8.337,8.337,0,0,0,12.24-1.267c2.962-3.942,3.214-8.39,1.658-12.918a7.9,7.9,0,0,0-6.922-5.622,8.291,8.291,0,0,0-7.98,3.589C3255.074-726.519,3254.565-723.857,3254.509-720.854Zm56.407-1.028c-.134-1.063-.19-2.143-.417-3.186a8.929,8.929,0,0,0-4.529-6.437,8.47,8.47,0,0,0-11.451,3.559,13.616,13.616,0,0,0-.753,11.985,7.938,7.938,0,0,0,6.856,5.391,8.308,8.308,0,0,0,7.974-3.616A13.407,13.407,0,0,0,3310.916-721.882Zm-13.507-15.926a1.769,1.769,0,0,0-1.753-1.814,1.807,1.807,0,0,0-1.855,1.788,1.829,1.829,0,0,0,1.829,1.824A1.8,1.8,0,0,0,3297.409-737.808Z" transform="translate(-3226.474 774.765)"></path><path id="Path_3208" data-name="Path 3208" d="M3317.009-706.568V-711.3h-1.34v-3.162h6.209v2.042a3.058,3.058,0,0,0,.278-.222c1.769-1.953,3.973-2.086,6.3-1.411a3.031,3.031,0,0,1,2.225,3.157c.019,1.192,0,2.384,0,3.576v.689h1.054a23.8,23.8,0,0,1-.176-2.668,4.636,4.636,0,0,1,2.584-4.06,8.659,8.659,0,0,1,7.469-.516,4.544,4.544,0,0,1,2.96,4.072l-4.246.475c-.071-.406-.113-.79-.207-1.16a1.507,1.507,0,0,0-1.533-1.274,1.627,1.627,0,0,0-1.787,1.208,6.794,6.794,0,0,0-.013,3.534,1.617,1.617,0,0,0,1.822,1.232,1.628,1.628,0,0,0,1.706-1.309c.03-.11.054-.221.084-.343h4.232a4.422,4.422,0,0,1-2.072,3.4c-2.477,1.554-7.167,1.163-9.337-.8A17.2,17.2,0,0,1,3332-706.2v2.8c-.261.016-.432.037-.6.037-2.208,0-4.416-.009-6.624.011-.429,0-.592-.106-.571-.556.034-.721.027-1.446,0-2.168-.013-.38.108-.537.5-.5.306.026.617.005.964.005,0-1.223.032-2.39-.014-3.554a1.172,1.172,0,0,0-.946-1.07,1.994,1.994,0,0,0-2.646,1.9c-.016.876,0,1.754,0,2.726.375,0,.717.015,1.058,0,.323-.018.456.094.449.433-.017.8.008,1.6-.02,2.4,0,.13-.194.363-.3.364-2.516.02-5.033.016-7.588.016v-3.2Z" transform="translate(-3277.061 741.893)" fill="#fff"></path><path id="Path_3209" data-name="Path 3209" d="M3355.447-666.249a14.066,14.066,0,0,1-1.867,7.068,8.548,8.548,0,0,1-11.652,3.215,8.392,8.392,0,0,1-3.774-4.693,14.094,14.094,0,0,1,.663-11.206,8.559,8.559,0,0,1,11.729-3.971,9.034,9.034,0,0,1,4.529,6.573C3355.28-668.276,3355.328-667.255,3355.447-666.249Zm-6.017.155c-.068-1.5-.1-3-.215-4.5a11.226,11.226,0,0,0-1.072-4.582c-.85-1.568-2.482-1.622-3.328-.058a9.1,9.1,0,0,0-.937,2.687,43.392,43.392,0,0,0-.178,13,9.885,9.885,0,0,0,.918,3.115c.76,1.538,2.383,1.54,3.267.069a7.2,7.2,0,0,0,.757-1.827A32.037,32.037,0,0,0,3349.43-666.094Z" transform="translate(-3290.16 719.11)" fill="#fff"></path><path id="Path_3210" data-name="Path 3210" d="M3288.9-665.149c.057-3,.566-5.665,2.278-7.951a8.289,8.289,0,0,1,7.979-3.589,7.9,7.9,0,0,1,6.923,5.622c1.556,4.528,1.3,8.976-1.659,12.918a8.336,8.336,0,0,1-12.239,1.267,10.277,10.277,0,0,1-3.173-6.732C3288.94-664.194,3288.926-664.781,3288.9-665.149Zm12.139-1.774c-.146-1.729-.258-3.461-.452-5.184a6.961,6.961,0,0,0-1.1-3.358,1.7,1.7,0,0,0-2.931-.023,2.5,2.5,0,0,0-.411.7,20.592,20.592,0,0,0-.8,2.8,46.278,46.278,0,0,0-.21,11.672,9.309,9.309,0,0,0,1.048,3.987,1.751,1.751,0,0,0,3.223.056,8.72,8.72,0,0,0,.936-2.439A39.858,39.858,0,0,0,3301.04-666.924Z" transform="translate(-3260.866 719.06)" fill="#fff"></path><path id="Path_3211" data-name="Path 3211" d="M3403.9-666.229a13.41,13.41,0,0,1-2.321,7.694,8.306,8.306,0,0,1-7.973,3.616,7.938,7.938,0,0,1-6.856-5.391,13.616,13.616,0,0,1,.753-11.985,8.469,8.469,0,0,1,11.451-3.559,8.929,8.929,0,0,1,4.53,6.437C3403.707-668.372,3403.763-667.292,3403.9-666.229Zm-6.032-.28c-.063-1.213-.106-2.814-.243-4.406a10.712,10.712,0,0,0-1.028-4.236,1.935,1.935,0,0,0-1.728-1.208,1.763,1.763,0,0,0-1.663,1.193,13.1,13.1,0,0,0-.925,2.818,45.267,45.267,0,0,0-.2,12.541,7.562,7.562,0,0,0,1.1,3.6,1.7,1.7,0,0,0,3.026,0,8.6,8.6,0,0,0,.966-2.363A35.234,35.234,0,0,0,3397.865-666.508Z" transform="translate(-3319.455 719.111)" fill="#fff"></path><path id="Path_3212" data-name="Path 3212" d="M3392.035-693.083a1.8,1.8,0,0,1-1.78,1.8,1.829,1.829,0,0,1-1.829-1.824,1.807,1.807,0,0,1,1.856-1.788A1.77,1.77,0,0,1,3392.035-693.083Z" transform="translate(-3321.099 730.04)" fill="#fff"></path><path id="Path_3213" data-name="Path 3213" d="M3358.62-665.392a32.062,32.062,0,0,1-.789,7.9,7.221,7.221,0,0,1-.757,1.827c-.884,1.471-2.507,1.469-3.266-.069a9.858,9.858,0,0,1-.918-3.115,43.392,43.392,0,0,1,.177-13,9.108,9.108,0,0,1,.937-2.686c.846-1.564,2.478-1.51,3.328.058a11.231,11.231,0,0,1,1.072,4.582C3358.523-668.4,3358.551-666.893,3358.62-665.392Z" transform="translate(-3299.349 718.408)"></path><path id="Path_3214" data-name="Path 3214" d="M3310.191-666.255a39.893,39.893,0,0,1-.7,8.216,8.743,8.743,0,0,1-.935,2.439,1.751,1.751,0,0,1-3.223-.056,9.3,9.3,0,0,1-1.048-3.987,46.3,46.3,0,0,1,.21-11.672,20.638,20.638,0,0,1,.8-2.8,2.5,2.5,0,0,1,.411-.7,1.7,1.7,0,0,1,2.931.022,6.97,6.97,0,0,1,1.1,3.358C3309.933-669.716,3310.045-667.984,3310.191-666.255Z" transform="translate(-3270.018 718.391)"></path><path id="Path_3215" data-name="Path 3215" d="M3407.109-665.771a35.247,35.247,0,0,1-.7,7.944,8.583,8.583,0,0,1-.966,2.363,1.7,1.7,0,0,1-3.025,0,7.57,7.57,0,0,1-1.1-3.6,45.3,45.3,0,0,1,.2-12.541,13.1,13.1,0,0,1,.925-2.818,1.762,1.762,0,0,1,1.663-1.193,1.934,1.934,0,0,1,1.728,1.208,10.7,10.7,0,0,1,1.029,4.236C3407-668.584,3407.046-666.983,3407.109-665.771Z" transform="translate(-3328.7 718.373)"></path></g><path id="Path_3216" data-name="Path 3216" d="M3219.839-605.372a96.239,96.239,0,0,1-27.125-8.407,97,97,0,0,0,8.57,10.59,102.863,102.863,0,0,1-13.946,1.742c4.308,2.183,10.114,5.016,23.42,7.454Z" transform="translate(-3187.338 680.946)" fill="#f60"></path><path id="Path_3217" data-name="Path 3217" d="M3248.978-593.3l.186,7.826-13.678-8.36Z" transform="translate(-3216.477 668.878)" fill="#cd3400"></path><path id="Path_3218" data-name="Path 3218" d="M3403.955-605.372a96.232,96.232,0,0,0,27.125-8.407,96.982,96.982,0,0,1-8.569,10.59,102.849,102.849,0,0,0,13.945,1.742c-4.308,2.183-10.114,5.016-23.421,7.454Z" transform="translate(-3318.437 680.946)" fill="#f60"></path><path id="Path_3219" data-name="Path 3219" d="M3403.671-593.3l-.185,7.826,12.238-8.36Z" transform="translate(-3318.152 668.878)" fill="#cd3400"></path><path id="Path_3220" data-name="Path 3220" d="M3229.588-593.838l-3.809,14.77a158.945,158.945,0,0,0,44.123,6.19,158.963,158.963,0,0,0,43.382-6.1q-2.556-7.431-5.11-14.863a141.271,141.271,0,0,1-40.686,5.573A141.234,141.234,0,0,1,3229.588-593.838Z" transform="translate(-3210.603 668.878)" fill="#f60"></path><g id="Group_1477" data-name="Group 1477" transform="translate(27.212 83.175)"><g id="Group_1476" data-name="Group 1476"><path id="Path_3221" data-name="Path 3221" d="M3256.266-568.3l.153-.794a1.842,1.842,0,0,0,.953.535,1.284,1.284,0,0,0,.888-.1.891.891,0,0,0,.454-.646.812.812,0,0,0-.192-.739,1.543,1.543,0,0,0-.877-.42q-.207-.04-.845-.119l.7-2.65,2.514.485-.136.705-1.827-.353-.333,1.262c.166.022.315.046.448.072a1.794,1.794,0,0,1,1.175.659,1.517,1.517,0,0,1,.223,1.225,1.586,1.586,0,0,1-.742,1.118,2.044,2.044,0,0,1-1.482.188A2.353,2.353,0,0,1,3256.266-568.3Z" transform="translate(-3256.266 573.232)" fill="#fff"></path><path id="Path_3222" data-name="Path 3222" d="M3276.3-570.24l-2.182,3.017-.283,1.868-.854-.13.282-1.85-1.142-3.541.971.148.676,2.359c.008.028.029.133.062.314l.011,0a2.046,2.046,0,0,1,.163-.279l1.393-2.044Z" transform="translate(-3265.859 571.805)" fill="#fff"></path><path id="Path_3223" data-name="Path 3223" d="M3285.211-563.584l-2.9-.37.661-5.159,2.781.356-.093.726-1.925-.246-.187,1.461,1.773.227-.093.723-1.773-.227-.2,1.525,2.04.261Z" transform="translate(-3272.031 570.739)" fill="#fff"></path><path id="Path_3224" data-name="Path 3224" d="M3295.433-562.1l-.942-.1-.329-1.365-2.035-.21-.583,1.27-.938-.1,2.471-4.973.967.1Zm-1.427-2.185-.505-2.137a2.444,2.444,0,0,1-.034-.332l-.015,0a2.2,2.2,0,0,1-.105.317l-.924,1.99Z" transform="translate(-3277.049 569.806)" fill="#fff"></path><path id="Path_3225" data-name="Path 3225" d="M3308.568-561.22l-1.005-.078-.72-1.452a2.928,2.928,0,0,0-.193-.344,1.306,1.306,0,0,0-.2-.239.736.736,0,0,0-.23-.145,1,1,0,0,0-.291-.062l-.346-.027-.163,2.1-.857-.066.4-5.185,1.707.132a2.478,2.478,0,0,1,.666.139,1.576,1.576,0,0,1,.515.3,1.239,1.239,0,0,1,.322.465,1.381,1.381,0,0,1,.081.623,1.51,1.51,0,0,1-.121.5,1.288,1.288,0,0,1-.263.39,1.416,1.416,0,0,1-.384.278,1.828,1.828,0,0,1-.491.159v.014a1.361,1.361,0,0,1,.233.194c.065.069.126.14.183.213a2.174,2.174,0,0,1,.168.244q.083.136.181.314Zm-2.8-4.732-.131,1.685.716.056a1.058,1.058,0,0,0,.372-.033.846.846,0,0,0,.305-.154.81.81,0,0,0,.213-.267.981.981,0,0,0,.1-.367.743.743,0,0,0-.19-.6.989.989,0,0,0-.66-.262Z" transform="translate(-3285.495 569.288)" fill="#fff"></path><path id="Path_3226" data-name="Path 3226" d="M3315.615-560.905l.048-.887a1.359,1.359,0,0,0,.274.211,2.15,2.15,0,0,0,.341.166,2.723,2.723,0,0,0,.364.112,1.941,1.941,0,0,0,.338.051,1.453,1.453,0,0,0,.819-.137.6.6,0,0,0,.295-.51.567.567,0,0,0-.071-.326.927.927,0,0,0-.235-.261,2.586,2.586,0,0,0-.362-.236c-.14-.077-.291-.157-.45-.241q-.256-.156-.477-.313a2.129,2.129,0,0,1-.379-.342,1.355,1.355,0,0,1-.243-.411,1.31,1.31,0,0,1-.067-.523,1.2,1.2,0,0,1,.2-.626,1.394,1.394,0,0,1,.459-.422,1.989,1.989,0,0,1,.628-.227,2.936,2.936,0,0,1,.707-.047,2.849,2.849,0,0,1,1.178.25l-.047.851a1.9,1.9,0,0,0-1.12-.381,2.063,2.063,0,0,0-.384.015,1.145,1.145,0,0,0-.347.1.728.728,0,0,0-.256.2.526.526,0,0,0-.111.31.593.593,0,0,0,.057.3.76.76,0,0,0,.2.244,2.134,2.134,0,0,0,.329.223c.13.074.282.154.453.241.176.1.341.213.5.325a2.408,2.408,0,0,1,.4.367,1.531,1.531,0,0,1,.267.434,1.23,1.23,0,0,1,.078.529,1.3,1.3,0,0,1-.2.657,1.285,1.285,0,0,1-.453.418,1.914,1.914,0,0,1-.635.212,3.508,3.508,0,0,1-.747.036,3.175,3.175,0,0,1-.319-.037c-.126-.02-.255-.047-.386-.079a3.6,3.6,0,0,1-.372-.113A1.176,1.176,0,0,1,3315.615-560.905Z" transform="translate(-3292.185 568.781)" fill="#fff"></path><path id="Path_3227" data-name="Path 3227" d="M3332.367-559.975l-.888-.025.145-5.2.888.024Z" transform="translate(-3301.785 568.37)" fill="#fff"></path><path id="Path_3228" data-name="Path 3228" d="M3341.325-559.807l-.943-.006-2.458-3.839a1.689,1.689,0,0,1-.154-.3h-.022a5.335,5.335,0,0,1,.024.715l-.023,3.409-.834-.006.035-5.2,1,.007,2.375,3.748q.151.233.194.32h.014a4.569,4.569,0,0,1-.031-.7l.023-3.351.83.006Z" transform="translate(-3305.076 568.273)" fill="#fff"></path><path id="Path_3229" data-name="Path 3229" d="M3359.766-560.162l-.946.033-.514-1.306-2.044.071-.4,1.339-.942.033,1.765-5.265.971-.034Zm-1.713-1.968-.794-2.048a2.547,2.547,0,0,1-.081-.324h-.014a2.094,2.094,0,0,1-.061.328l-.641,2.1Z" transform="translate(-3315.97 568.427)" fill="#fff"></path><path id="Path_3230" data-name="Path 3230" d="M3377.417-561.2l-1.005.079-.937-1.324a2.98,2.98,0,0,0-.244-.31,1.336,1.336,0,0,0-.235-.205.73.73,0,0,0-.25-.108,1.011,1.011,0,0,0-.3-.017l-.347.027.165,2.1-.856.067L3373-566.07l1.707-.133a2.483,2.483,0,0,1,.679.034,1.567,1.567,0,0,1,.556.221,1.223,1.223,0,0,1,.39.409,1.384,1.384,0,0,1,.177.6,1.5,1.5,0,0,1-.042.511,1.311,1.311,0,0,1-.2.427,1.417,1.417,0,0,1-.337.334,1.825,1.825,0,0,1-.46.233v.014a1.368,1.368,0,0,1,.26.156c.074.058.146.119.214.181a2.324,2.324,0,0,1,.2.215q.1.121.228.282Zm-3.5-4.24.132,1.685.716-.056a1.061,1.061,0,0,0,.362-.09.845.845,0,0,0,.277-.2.808.808,0,0,0,.169-.3.961.961,0,0,0,.039-.378.74.74,0,0,0-.281-.564.982.982,0,0,0-.692-.157Z" transform="translate(-3326.917 568.983)" fill="#fff"></path><path id="Path_3231" data-name="Path 3231" d="M3386.576-562.269a2.339,2.339,0,0,1-1.873-.519,2.679,2.679,0,0,1-.888-1.807,2.834,2.834,0,0,1,.457-2.067,2.418,2.418,0,0,1,1.774-.956,2.287,2.287,0,0,1,1.835.519,2.688,2.688,0,0,1,.881,1.808,2.846,2.846,0,0,1-.451,2.078A2.378,2.378,0,0,1,3386.576-562.269Zm-.487-4.591a1.447,1.447,0,0,0-1.094.662,2.11,2.11,0,0,0-.285,1.446,2.131,2.131,0,0,0,.592,1.338,1.4,1.4,0,0,0,1.192.4,1.47,1.47,0,0,0,1.113-.635,2.1,2.1,0,0,0,.268-1.451,2.206,2.206,0,0,0-.581-1.383A1.416,1.416,0,0,0,3386.089-566.86Z" transform="translate(-3333.443 569.847)" fill="#fff"></path><path id="Path_3232" data-name="Path 3232" d="M3403.184-571.07l-.527,5.366-.961.165-1.59-3.418a2.445,2.445,0,0,1-.161-.488l-.014,0a2.485,2.485,0,0,1,0,.508l-.365,3.76-.983.168-2.311-4.88.933-.16,1.572,3.594a2.793,2.793,0,0,1,.156.481l.018,0a2.728,2.728,0,0,1,.015-.511l.408-3.933.876-.15,1.619,3.615a2.935,2.935,0,0,1,.154.445l.014,0a2.911,2.911,0,0,1,0-.486l.267-3.924Z" transform="translate(-3340.998 571.923)" fill="#fff"></path></g></g></g><path id="Path_3314" data-name="Path 3314" d="M.175-3.276a3.239,3.239,0,0,1,.067-.711A1.245,1.245,0,0,1,.49-4.5,1.121,1.121,0,0,1,.984-4.84,2.391,2.391,0,0,1,1.8-4.956,1.718,1.718,0,0,1,3.052-4.6a1.376,1.376,0,0,1,.343.994,1.974,1.974,0,0,1-.157.823,2.211,2.211,0,0,1-.459.648l-.77.749a3.173,3.173,0,0,0-.234.252.575.575,0,0,0-.088.154H3.395V0H.133A3,3,0,0,1,.3-1.019,2.438,2.438,0,0,1,.875-1.9l.868-.882a1.28,1.28,0,0,0,.27-.368,1.081,1.081,0,0,0,.08-.444.8.8,0,0,0-.084-.427.283.283,0,0,0-.252-.126.311.311,0,0,0-.266.136.964.964,0,0,0-.1.522v.21ZM5.46-4.956a1.5,1.5,0,0,1,1.3.536,3.614,3.614,0,0,1,.389,1.991A3.614,3.614,0,0,1,6.759-.437,1.5,1.5,0,0,1,5.46.1a1.5,1.5,0,0,1-1.3-.536,3.614,3.614,0,0,1-.388-1.991A3.614,3.614,0,0,1,4.161-4.42,1.5,1.5,0,0,1,5.46-4.956ZM5.075-1.61A1.981,1.981,0,0,0,5.159-.9a.3.3,0,0,0,.3.182.3.3,0,0,0,.3-.189,1.914,1.914,0,0,0,.088-.707V-3.248a1.981,1.981,0,0,0-.084-.714.3.3,0,0,0-.3-.182.3.3,0,0,0-.3.189,1.914,1.914,0,0,0-.088.707Zm2.38-1.666a3.239,3.239,0,0,1,.066-.711A1.245,1.245,0,0,1,7.77-4.5a1.121,1.121,0,0,1,.493-.339,2.391,2.391,0,0,1,.816-.115,1.718,1.718,0,0,1,1.253.357,1.376,1.376,0,0,1,.343.994,1.974,1.974,0,0,1-.158.823,2.211,2.211,0,0,1-.458.648l-.77.749a3.173,3.173,0,0,0-.234.252.575.575,0,0,0-.088.154h1.708V0H7.413a3,3,0,0,1,.165-1.019A2.438,2.438,0,0,1,8.155-1.9l.868-.882a1.28,1.28,0,0,0,.269-.368,1.081,1.081,0,0,0,.08-.444.8.8,0,0,0-.084-.427.283.283,0,0,0-.252-.126.311.311,0,0,0-.266.136.964.964,0,0,0-.1.522v.21ZM12.2,0V-3.374h-.938v-.812a1.914,1.914,0,0,0,.9-.157.948.948,0,0,0,.406-.612H13.5V0Z" transform="translate(3241.113 -762.913)" fill="#fff"></path></g></svg> 